<svg width="671" height="56" viewBox="0 0 671 56" fill="none" xmlns="http://www.w3.org/2000/svg">
<g clip-path="url(#clip0_27_5243)">
<path d="M0 19.2446C-4.06082e-07 23.8927 1.84523 28.3505 5.12977 31.6372C8.41431 34.9239 12.8691 36.7704 17.5141 36.7704C22.1592 36.7704 26.614 34.9239 29.8985 31.6372C33.1831 28.3505 35.0283 23.8927 35.0283 19.2446L17.5141 19.2446L0 19.2446Z" fill="#AAAAAA"/>
<g clip-path="url(#clip1_27_5243)">
<path d="M58.2215 39.9051H63.2656L68.7078 23.3018H63.3319L60.4449 33.463L57.2923 23.3018H53.4429L50.2903 33.463L47.4033 23.3018H42.0273L47.5028 39.9051H52.5469L55.4008 31.1053L58.2215 39.9051Z" fill="#AAAAAA"/>
<path d="M77.0632 40.2702C80.5476 40.2702 83.3019 38.8091 84.8616 36.6174L81.1449 33.8281C80.5144 34.7911 79.0543 35.7209 77.1296 35.7209C75.2381 35.7209 73.3797 34.7911 73.0811 32.7987H85.1271C85.2267 32.0017 85.2267 31.4704 85.2267 31.0387C85.2267 25.6592 81.344 22.9363 76.9637 22.9363C71.9196 22.9363 68.2361 26.6554 68.2361 31.6032C68.2361 36.9495 72.1851 40.2702 77.0632 40.2702ZM76.8309 27.0207C78.2911 27.0207 79.8176 27.7513 80.249 29.5112H73.2138C73.6452 27.6848 75.3708 27.0207 76.8309 27.0207Z" fill="#AAAAAA"/>
<path d="M87.0566 39.905H92.0675V15H87.0566V39.905Z" fill="#AAAAAA"/>
<path d="M94.8679 39.905H99.8788V15H94.8679V39.905Z" fill="#AAAAAA"/>
<path d="M111.141 40.1043C112.469 40.1043 113.398 39.9715 114.128 39.7723V35.3226C113.597 35.5218 113.066 35.6214 112.303 35.6214C110.312 35.6214 109.482 34.7913 109.482 32.7989V27.6518H114.128V23.3018H109.482V18.686H104.471V23.3018H101.153V27.6518H104.471V33.8283C104.471 38.0455 107.458 40.1043 111.141 40.1043Z" fill="#AAAAAA"/>
<path d="M124.297 40.2702C127.781 40.2702 130.536 38.8091 132.095 36.6174L128.379 33.8281C127.748 34.7911 126.288 35.7209 124.363 35.7209C122.472 35.7209 120.613 34.7911 120.315 32.7987H132.361C132.46 32.0017 132.46 31.4704 132.46 31.0387C132.46 25.6592 128.578 22.9363 124.197 22.9363C119.153 22.9363 115.47 26.6554 115.47 31.6032C115.47 36.9495 119.419 40.2702 124.297 40.2702ZM124.065 27.0207C125.525 27.0207 127.051 27.7513 127.483 29.5112H120.447C120.879 27.6848 122.604 27.0207 124.065 27.0207Z" fill="#AAAAAA"/>
<path d="M142.52 40.2702C145.971 40.2702 149.024 38.311 150.451 35.422L146.071 33.0975C145.474 34.5254 144.179 35.588 142.52 35.588C140.43 35.588 138.737 33.9609 138.737 31.6032C138.737 29.2456 140.43 27.6184 142.52 27.6184C144.179 27.6184 145.474 28.681 146.071 30.1089L150.451 27.7845C149.024 24.8955 145.971 22.9363 142.52 22.9363C137.642 22.9363 133.693 26.5226 133.693 31.6032C133.693 36.6838 137.642 40.2702 142.52 40.2702Z" fill="#AAAAAA"/>
<path d="M151.801 39.905H156.812V31.8358C156.812 28.8472 158.272 27.4857 160.163 27.4857C161.955 27.4857 162.851 28.8804 162.851 31.1716V39.905H167.862V30.3083C167.862 25.9582 165.506 22.9364 161.424 22.9364C159.267 22.9364 157.608 23.8662 156.812 24.9952V15H151.801V39.905Z" fill="#AAAAAA"/>
</g>
</g>
<path d="M353.921 8.16675H350.722L346.216 15.6039L341.687 8.16675H338.488V23.8948H341.597V13.7165L346.035 20.9963H346.396L350.835 13.694V23.8948H353.921V8.16675Z" fill="#AAAAAA"/>
<path d="M364.836 12.6605V13.9861C364.025 12.975 362.808 12.3459 361.163 12.3459C358.167 12.3459 355.688 14.9298 355.688 18.2776C355.688 21.6255 358.167 24.2094 361.163 24.2094C362.808 24.2094 364.025 23.5802 364.836 22.5691V23.8948H367.743V12.6605H364.836ZM361.704 21.4457C359.924 21.4457 358.595 20.165 358.595 18.2776C358.595 16.3903 359.924 15.1096 361.704 15.1096C363.507 15.1096 364.836 16.3903 364.836 18.2776C364.836 20.165 363.507 21.4457 361.704 21.4457Z" fill="#AAAAAA"/>
<path d="M376.372 15.4466V12.6605H373.825V9.51489L370.919 10.3912V12.6605H368.959V15.4466H370.919V20.1201C370.919 23.1533 372.293 24.3442 376.372 23.8948V21.266C374.704 21.3558 373.825 21.3334 373.825 20.1201V15.4466H376.372Z" fill="#AAAAAA"/>
<path d="M380.074 19.4685H388.568C388.636 19.0865 388.681 18.7045 388.681 18.2776C388.681 14.9747 386.315 12.3459 382.98 12.3459C379.443 12.3459 377.032 14.9298 377.032 18.2776C377.032 21.6255 379.421 24.2094 383.206 24.2094C385.369 24.2094 387.059 23.3331 388.118 21.8052L385.774 20.4571C385.279 21.1087 384.377 21.5805 383.251 21.5805C381.719 21.5805 380.48 20.9514 380.074 19.4685ZM380.029 17.2216C380.367 15.7836 381.426 14.9523 382.98 14.9523C384.197 14.9523 385.414 15.6039 385.774 17.2216H380.029Z" fill="#AAAAAA"/>
<path d="M346.914 34.4269V35.7525C346.103 34.7414 344.886 34.1123 343.242 34.1123C340.245 34.1123 337.767 36.6962 337.767 40.044C337.767 43.3918 340.245 45.9757 343.242 45.9757C344.886 45.9757 346.103 45.3466 346.914 44.3355V45.6612H349.821V34.4269H346.914ZM343.782 43.2121C342.003 43.2121 340.673 41.9314 340.673 40.044C340.673 38.1566 342.003 36.8759 343.782 36.8759C345.585 36.8759 346.914 38.1566 346.914 40.044C346.914 41.9314 345.585 43.2121 343.782 43.2121Z" fill="#AAAAAA"/>
<path d="M357.368 45.9757C359.576 45.9757 361.491 44.8074 362.46 43.0548L359.937 41.6168C359.486 42.538 358.517 43.0997 357.346 43.0997C355.611 43.0997 354.326 41.819 354.326 40.044C354.326 38.2465 355.611 36.9658 357.346 36.9658C358.495 36.9658 359.464 37.55 359.914 38.4712L362.415 37.0107C361.491 35.2807 359.576 34.1123 357.368 34.1123C353.943 34.1123 351.42 36.6962 351.42 40.044C351.42 43.3918 353.943 45.9757 357.368 45.9757Z" fill="#AAAAAA"/>
<path d="M371.933 34.4269V35.7525C371.121 34.7414 369.905 34.1123 368.26 34.1123C365.263 34.1123 362.785 36.6962 362.785 40.044C362.785 43.3918 365.263 45.9757 368.26 45.9757C369.905 45.9757 371.121 45.3466 371.933 44.3355V45.6612H374.839V34.4269H371.933ZM368.801 43.2121C367.021 43.2121 365.691 41.9314 365.691 40.044C365.691 38.1566 367.021 36.8759 368.801 36.8759C370.603 36.8759 371.933 38.1566 371.933 40.044C371.933 41.9314 370.603 43.2121 368.801 43.2121Z" fill="#AAAAAA"/>
<path d="M385.563 29.9331V35.7525C384.752 34.7189 383.558 34.1123 381.913 34.1123C378.894 34.1123 376.416 36.6962 376.416 40.044C376.416 43.3918 378.894 45.9757 381.913 45.9757C383.558 45.9757 384.752 45.3691 385.563 44.3355V45.6612H388.47V29.9331H385.563ZM382.454 43.2121C380.652 43.2121 379.322 41.9314 379.322 40.044C379.322 38.1566 380.652 36.8759 382.454 36.8759C384.234 36.8759 385.563 38.1566 385.563 40.044C385.563 41.9314 384.234 43.2121 382.454 43.2121Z" fill="#AAAAAA"/>
<path d="M393.133 41.2348H401.627C401.695 40.8529 401.74 40.4709 401.74 40.044C401.74 36.7411 399.374 34.1123 396.04 34.1123C392.502 34.1123 390.091 36.6962 390.091 40.044C390.091 43.3918 392.48 45.9757 396.265 45.9757C398.428 45.9757 400.118 45.0994 401.177 43.5716L398.834 42.2235C398.338 42.8751 397.437 43.3469 396.31 43.3469C394.778 43.3469 393.539 42.7178 393.133 41.2348ZM393.088 38.988C393.426 37.55 394.485 36.7187 396.04 36.7187C397.256 36.7187 398.473 37.3702 398.834 38.988H393.088Z" fill="#AAAAAA"/>
<path d="M415.778 34.1123C414.246 34.1123 413.119 34.7189 412.421 35.73C411.79 34.6965 410.754 34.1123 409.357 34.1123C407.915 34.1123 406.856 34.674 406.225 35.6177V34.4269H403.318V45.6612H406.225V39.3475C406.225 37.6623 407.104 36.8085 408.343 36.8085C409.56 36.8085 410.235 37.6174 410.235 38.943V45.6612H413.142V39.3475C413.142 37.6623 413.953 36.8085 415.237 36.8085C416.454 36.8085 417.13 37.6174 417.13 38.943V45.6612H420.036V38.7408C420.036 35.9322 418.347 34.1123 415.778 34.1123Z" fill="#AAAAAA"/>
<path d="M429.157 34.427L426.657 41.9764L423.727 34.427H420.551L425.169 45.3018C424.629 46.8072 423.818 47.4812 422.218 47.4588V50.155C425.079 50.3123 426.994 48.8967 428.166 45.6613L432.267 34.427H429.157Z" fill="#AAAAAA"/>
<path d="M302.2 30.7144C302.2 32.5001 303.398 33.6191 305.052 33.6191C306.706 33.6191 307.905 32.5001 307.905 30.7144C307.905 28.9287 306.706 27.8096 305.052 27.8096C303.398 27.8096 302.2 28.9287 302.2 30.7144Z" fill="#AAAAAA"/>
<path fill-rule="evenodd" clip-rule="evenodd" d="M312 0C318.627 0 324 5.37258 324 12V44C324 50.6274 318.627 56 312 56H280C273.373 56 268 50.6274 268 44V12C268 5.37258 273.373 0 280 0H312ZM293.444 20H297.279V36.6667H293.444V26.9762L289.105 34.0476H288.674L284.335 26.9762V36.6667H280.5V20H284.335L288.889 27.4048L293.444 20ZM307.905 25.881V24.7619H311.5V36.6667H307.905V35.5476C307.114 36.4524 305.939 37 304.333 37C301.193 37 298.604 34.2619 298.604 30.7143C298.604 27.1667 301.193 24.4286 304.333 24.4286C305.939 24.4286 307.114 24.9762 307.905 25.881Z" fill="#AAAAAA"/>
<path d="M297.279 20H293.444L288.889 27.4048L284.335 20H280.5V36.6667H284.335V26.9762L288.674 34.0476H289.105L293.444 26.9762V36.6667H297.279V20Z" fill="white"/>
<path d="M307.905 24.762V25.8811C307.114 24.9763 305.939 24.4287 304.333 24.4287C301.193 24.4287 298.604 27.1668 298.604 30.7144C298.604 34.262 301.193 37.0001 304.333 37.0001C305.939 37.0001 307.114 36.4525 307.905 35.5477V36.6668H311.5V24.762H307.905ZM305.052 33.6191C303.398 33.6191 302.2 32.5001 302.2 30.7144C302.2 28.9287 303.398 27.8096 305.052 27.8096C306.706 27.8096 307.905 28.9287 307.905 30.7144C307.905 32.5001 306.706 33.6191 305.052 33.6191Z" fill="white"/>
<mask id="mask0_27_5243" style="mask-type:luminance" maskUnits="userSpaceOnUse" x="536" y="10" width="135" height="36">
<path d="M671 10H536V46H671V10Z" fill="white"/>
</mask>
<g mask="url(#mask0_27_5243)">
<path d="M646.937 18.14C639.259 18.14 633.028 24.371 633.028 32.05C633.028 39.728 639.259 45.959 646.937 45.959C654.616 45.959 660.846 39.728 660.846 32.049C660.846 24.371 654.616 18.14 646.937 18.14ZM646.937 40.441C642.427 40.441 638.756 36.686 638.756 32.05C638.756 27.413 642.406 23.658 646.937 23.658C651.469 23.658 655.119 27.413 655.119 32.05C655.098 36.686 651.448 40.441 646.937 40.441ZM629.588 18.559H623.86V45.559H629.588V18.559ZM549.678 23.68C552.909 23.68 555.448 25.4 556.559 28.378H562.643C561.028 22.064 556.245 18.141 549.804 18.141C541.958 18.14 536 24.37 536 32.07C536 39.77 541.958 45.98 549.804 45.98C556.244 45.98 561.028 42.057 562.644 35.742H556.559C555.448 38.721 552.889 40.442 549.679 40.442C545 40.442 541.749 36.686 541.749 32.05C541.749 27.413 544.999 23.68 549.678 23.68ZM610.517 22.588V18.56H604.811V45.58H610.517V33.855C610.517 26.89 614.336 22.988 620.587 24.309V18.56C616.685 17.301 612.3 19.546 610.517 22.588ZM571.664 38.741V10H565.937V39.287C565.937 42.329 567.259 45.559 571.916 45.559H574.182V40.986H573.342C572.231 40.881 571.664 40.356 571.664 38.741ZM598.98 38.742V28.022C598.98 22.819 596.063 18.141 588.028 18.141C581.651 18.141 577.476 22.693 576.93 27.161H582.616C583.161 24.875 585.028 23.008 587.966 23.008C591.385 23.008 593.252 24.812 593.252 27.162C593.252 28.064 592.832 29.218 590.923 29.218L586.35 29.302C579.93 29.302 576.028 32.112 576.028 37.462C576.028 42.372 579.616 46.001 585.406 46.001C588.951 46.001 591.763 44.574 593.819 42.434C594.574 44.218 596.189 45.581 599.21 45.581H601.12V41.008H600.637C599.546 40.882 598.98 40.358 598.98 38.742ZM586.224 41.112C583.287 41.112 581.882 39.392 581.882 37.609C581.882 34.63 584.336 33.749 587.084 33.749L590.504 33.686C591.532 33.686 592.434 33.56 593.231 33.203V33.917C593.252 39.015 589.707 41.113 586.224 41.113V41.112Z" fill="#AAAAAA"/>
<path d="M621.525 10.0156C621.484 10.2466 621.484 10.4986 621.484 10.7506C621.483 11.4424 621.619 12.1275 621.883 12.7669C622.147 13.4062 622.535 13.9871 623.024 14.4762C623.513 14.9653 624.094 15.3531 624.733 15.6173C625.372 15.8814 626.058 16.0168 626.749 16.0156C627.441 16.0169 628.126 15.8817 628.766 15.6175C629.405 15.3534 629.986 14.9657 630.476 14.4765C630.965 13.9874 631.353 13.4065 631.617 12.7671C631.881 12.1277 632.017 11.4424 632.015 10.7506C632.015 10.4986 631.995 10.2466 631.973 10.0156H621.525ZM670.093 45.5746C670.135 45.3446 670.135 45.0926 670.135 44.8406C670.137 44.1488 670.002 43.4634 669.738 42.8239C669.474 42.1844 669.086 41.6034 668.597 41.1141C668.107 40.6249 667.526 40.237 666.887 39.9728C666.248 39.7086 665.562 39.5733 664.87 39.5746C664.178 39.5733 663.493 39.7086 662.854 39.9728C662.214 40.237 661.633 40.6248 661.144 41.1141C660.655 41.6033 660.267 42.1844 660.003 42.8239C659.738 43.4634 659.603 44.1487 659.604 44.8406C659.604 45.0926 659.625 45.3436 659.646 45.5746H670.093Z" fill="#AAAAAA"/>
<path d="M669.958 45.5746C670 45.3446 670 45.0926 670 44.8406C670.002 44.1488 669.867 43.4634 669.603 42.8239C669.339 42.1844 668.951 41.6034 668.462 41.1141C667.972 40.6249 667.391 40.237 666.752 39.9728C666.113 39.7086 665.427 39.5733 664.735 39.5746C664.043 39.5733 663.358 39.7086 662.719 39.9728C662.079 40.237 661.498 40.6248 661.009 41.1141C660.52 41.6033 660.132 42.1844 659.868 42.8239C659.603 43.4634 659.468 44.1487 659.469 44.8406C659.469 45.0926 659.49 45.3436 659.511 45.5746H669.958Z" fill="#AAAAAA"/>
</g>
<defs>
<clipPath id="clip0_27_5243">
<rect width="168" height="26" fill="white" transform="translate(0 15)"/>
</clipPath>
<clipPath id="clip1_27_5243">
<rect width="126" height="26" fill="white" transform="translate(42 15)"/>
</clipPath>
</defs>
</svg>
