<svg width="713" height="80" viewBox="0 0 713 80" fill="none" xmlns="http://www.w3.org/2000/svg">
<g clip-path="url(#clip0_27_5243)">
<path d="M0 31.2446C-4.06082e-07 35.8927 1.84523 40.3505 5.12977 43.6372C8.41431 46.9239 12.8691 48.7704 17.5141 48.7704C22.1592 48.7704 26.614 46.9239 29.8985 43.6372C33.1831 40.3505 35.0283 35.8927 35.0283 31.2446L17.5141 31.2446L0 31.2446Z" fill="#2F2F2F"/>
<g clip-path="url(#clip1_27_5243)">
<path d="M58.2215 51.9051H63.2656L68.7078 35.3018H63.3319L60.4449 45.463L57.2923 35.3018H53.4429L50.2903 45.463L47.4033 35.3018H42.0273L47.5028 51.9051H52.5469L55.4008 43.1053L58.2215 51.9051Z" fill="#2F2F2F"/>
<path d="M77.0632 52.2702C80.5476 52.2702 83.3019 50.8091 84.8616 48.6174L81.1449 45.8281C80.5144 46.7911 79.0543 47.7209 77.1296 47.7209C75.2381 47.7209 73.3797 46.7911 73.0811 44.7987H85.1271C85.2267 44.0017 85.2267 43.4704 85.2267 43.0387C85.2267 37.6592 81.344 34.9363 76.9637 34.9363C71.9196 34.9363 68.2361 38.6554 68.2361 43.6032C68.2361 48.9495 72.1851 52.2702 77.0632 52.2702ZM76.8309 39.0207C78.2911 39.0207 79.8176 39.7513 80.249 41.5112H73.2138C73.6452 39.6848 75.3708 39.0207 76.8309 39.0207Z" fill="#2F2F2F"/>
<path d="M87.0566 51.905H92.0675V27H87.0566V51.905Z" fill="#2F2F2F"/>
<path d="M94.8679 51.905H99.8788V27H94.8679V51.905Z" fill="#2F2F2F"/>
<path d="M111.141 52.1043C112.469 52.1043 113.398 51.9715 114.128 51.7723V47.3226C113.597 47.5218 113.066 47.6214 112.303 47.6214C110.312 47.6214 109.482 46.7913 109.482 44.7989V39.6518H114.128V35.3018H109.482V30.686H104.471V35.3018H101.153V39.6518H104.471V45.8283C104.471 50.0455 107.458 52.1043 111.141 52.1043Z" fill="#2F2F2F"/>
<path d="M124.297 52.2702C127.781 52.2702 130.536 50.8091 132.095 48.6174L128.379 45.8281C127.748 46.7911 126.288 47.7209 124.363 47.7209C122.472 47.7209 120.613 46.7911 120.315 44.7987H132.361C132.46 44.0017 132.46 43.4704 132.46 43.0387C132.46 37.6592 128.578 34.9363 124.197 34.9363C119.153 34.9363 115.47 38.6554 115.47 43.6032C115.47 48.9495 119.419 52.2702 124.297 52.2702ZM124.065 39.0207C125.525 39.0207 127.051 39.7513 127.483 41.5112H120.447C120.879 39.6848 122.604 39.0207 124.065 39.0207Z" fill="#2F2F2F"/>
<path d="M142.52 52.2702C145.971 52.2702 149.024 50.311 150.451 47.422L146.071 45.0975C145.474 46.5254 144.179 47.588 142.52 47.588C140.43 47.588 138.737 45.9609 138.737 43.6032C138.737 41.2456 140.43 39.6184 142.52 39.6184C144.179 39.6184 145.474 40.681 146.071 42.1089L150.451 39.7845C149.024 36.8955 145.971 34.9363 142.52 34.9363C137.642 34.9363 133.693 38.5226 133.693 43.6032C133.693 48.6838 137.642 52.2702 142.52 52.2702Z" fill="#2F2F2F"/>
<path d="M151.801 51.905H156.812V43.8358C156.812 40.8472 158.272 39.4857 160.163 39.4857C161.955 39.4857 162.851 40.8804 162.851 43.1716V51.905H167.862V42.3083C167.862 37.9582 165.506 34.9364 161.424 34.9364C159.267 34.9364 157.608 35.8662 156.812 36.9952V27H151.801V51.905Z" fill="#2F2F2F"/>
</g>
</g>
<path d="M353.921 20.1667H350.722L346.216 27.6039L341.687 20.1667H338.488V35.8948H341.597V25.7165L346.035 32.9963H346.396L350.835 25.694V35.8948H353.921V20.1667Z" fill="#E8503A"/>
<path d="M364.836 24.6605V25.9861C364.025 24.975 362.808 24.3459 361.163 24.3459C358.167 24.3459 355.688 26.9298 355.688 30.2776C355.688 33.6255 358.167 36.2094 361.163 36.2094C362.808 36.2094 364.025 35.5802 364.836 34.5691V35.8948H367.743V24.6605H364.836ZM361.704 33.4457C359.924 33.4457 358.595 32.165 358.595 30.2776C358.595 28.3903 359.924 27.1096 361.704 27.1096C363.507 27.1096 364.836 28.3903 364.836 30.2776C364.836 32.165 363.507 33.4457 361.704 33.4457Z" fill="#E8503A"/>
<path d="M376.372 27.4466V24.6605H373.825V21.5149L370.919 22.3912V24.6605H368.959V27.4466H370.919V32.1201C370.919 35.1533 372.293 36.3442 376.372 35.8948V33.266C374.704 33.3558 373.825 33.3334 373.825 32.1201V27.4466H376.372Z" fill="#E8503A"/>
<path d="M380.074 31.4685H388.568C388.636 31.0865 388.681 30.7045 388.681 30.2776C388.681 26.9747 386.315 24.3459 382.98 24.3459C379.443 24.3459 377.032 26.9298 377.032 30.2776C377.032 33.6255 379.421 36.2094 383.206 36.2094C385.369 36.2094 387.059 35.3331 388.118 33.8052L385.774 32.4571C385.279 33.1087 384.377 33.5805 383.251 33.5805C381.719 33.5805 380.48 32.9514 380.074 31.4685ZM380.029 29.2216C380.367 27.7836 381.426 26.9523 382.98 26.9523C384.197 26.9523 385.414 27.6039 385.774 29.2216H380.029Z" fill="#E8503A"/>
<path d="M346.914 46.4269V47.7525C346.103 46.7414 344.886 46.1123 343.242 46.1123C340.245 46.1123 337.767 48.6962 337.767 52.044C337.767 55.3918 340.245 57.9757 343.242 57.9757C344.886 57.9757 346.103 57.3466 346.914 56.3355V57.6612H349.821V46.4269H346.914ZM343.782 55.2121C342.003 55.2121 340.673 53.9314 340.673 52.044C340.673 50.1566 342.003 48.8759 343.782 48.8759C345.585 48.8759 346.914 50.1566 346.914 52.044C346.914 53.9314 345.585 55.2121 343.782 55.2121Z" fill="#E8503A"/>
<path d="M357.368 57.9757C359.576 57.9757 361.491 56.8074 362.46 55.0548L359.937 53.6168C359.486 54.538 358.517 55.0997 357.346 55.0997C355.611 55.0997 354.326 53.819 354.326 52.044C354.326 50.2465 355.611 48.9658 357.346 48.9658C358.495 48.9658 359.464 49.55 359.914 50.4712L362.415 49.0107C361.491 47.2807 359.576 46.1123 357.368 46.1123C353.943 46.1123 351.42 48.6962 351.42 52.044C351.42 55.3918 353.943 57.9757 357.368 57.9757Z" fill="#E8503A"/>
<path d="M371.933 46.4269V47.7525C371.121 46.7414 369.905 46.1123 368.26 46.1123C365.263 46.1123 362.785 48.6962 362.785 52.044C362.785 55.3918 365.263 57.9757 368.26 57.9757C369.905 57.9757 371.121 57.3466 371.933 56.3355V57.6612H374.839V46.4269H371.933ZM368.801 55.2121C367.021 55.2121 365.691 53.9314 365.691 52.044C365.691 50.1566 367.021 48.8759 368.801 48.8759C370.603 48.8759 371.933 50.1566 371.933 52.044C371.933 53.9314 370.603 55.2121 368.801 55.2121Z" fill="#E8503A"/>
<path d="M385.563 41.9331V47.7525C384.752 46.7189 383.558 46.1123 381.913 46.1123C378.894 46.1123 376.416 48.6962 376.416 52.044C376.416 55.3918 378.894 57.9757 381.913 57.9757C383.558 57.9757 384.752 57.3691 385.563 56.3355V57.6612H388.47V41.9331H385.563ZM382.454 55.2121C380.652 55.2121 379.322 53.9314 379.322 52.044C379.322 50.1566 380.652 48.8759 382.454 48.8759C384.234 48.8759 385.563 50.1566 385.563 52.044C385.563 53.9314 384.234 55.2121 382.454 55.2121Z" fill="#E8503A"/>
<path d="M393.133 53.2348H401.627C401.695 52.8529 401.74 52.4709 401.74 52.044C401.74 48.7411 399.374 46.1123 396.04 46.1123C392.502 46.1123 390.091 48.6962 390.091 52.044C390.091 55.3918 392.48 57.9757 396.265 57.9757C398.428 57.9757 400.118 57.0994 401.177 55.5716L398.834 54.2235C398.338 54.8751 397.437 55.3469 396.31 55.3469C394.778 55.3469 393.539 54.7178 393.133 53.2348ZM393.088 50.988C393.426 49.55 394.485 48.7187 396.04 48.7187C397.256 48.7187 398.473 49.3702 398.834 50.988H393.088Z" fill="#E8503A"/>
<path d="M415.778 46.1123C414.246 46.1123 413.119 46.7189 412.421 47.73C411.79 46.6965 410.754 46.1123 409.357 46.1123C407.915 46.1123 406.856 46.674 406.225 47.6177V46.4269H403.318V57.6612H406.225V51.3475C406.225 49.6623 407.104 48.8085 408.343 48.8085C409.56 48.8085 410.235 49.6174 410.235 50.943V57.6612H413.142V51.3475C413.142 49.6623 413.953 48.8085 415.237 48.8085C416.454 48.8085 417.13 49.6174 417.13 50.943V57.6612H420.036V50.7408C420.036 47.9322 418.347 46.1123 415.778 46.1123Z" fill="#E8503A"/>
<path d="M429.157 46.427L426.657 53.9764L423.727 46.427H420.551L425.169 57.3018C424.629 58.8072 423.818 59.4812 422.218 59.4588V62.155C425.079 62.3123 426.994 60.8967 428.166 57.6613L432.267 46.427H429.157Z" fill="#E8503A"/>
<path d="M302.2 42.7144C302.2 44.5001 303.398 45.6191 305.052 45.6191C306.706 45.6191 307.905 44.5001 307.905 42.7144C307.905 40.9287 306.706 39.8096 305.052 39.8096C303.398 39.8096 302.2 40.9287 302.2 42.7144Z" fill="#E8503A"/>
<path fill-rule="evenodd" clip-rule="evenodd" d="M312 12C318.627 12 324 17.3726 324 24V56C324 62.6274 318.627 68 312 68H280C273.373 68 268 62.6274 268 56V24C268 17.3726 273.373 12 280 12H312ZM293.444 32H297.279V48.6667H293.444V38.9762L289.105 46.0476H288.674L284.335 38.9762V48.6667H280.5V32H284.335L288.889 39.4048L293.444 32ZM307.905 37.881V36.7619H311.5V48.6667H307.905V47.5476C307.114 48.4524 305.939 49 304.333 49C301.193 49 298.604 46.2619 298.604 42.7143C298.604 39.1667 301.193 36.4286 304.333 36.4286C305.939 36.4286 307.114 36.9762 307.905 37.881Z" fill="#E8503A"/>
<path d="M297.279 32H293.444L288.889 39.4048L284.335 32H280.5V48.6667H284.335V38.9762L288.674 46.0476H289.105L293.444 38.9762V48.6667H297.279V32Z" fill="white"/>
<path d="M307.905 36.762V37.8811C307.114 36.9763 305.939 36.4287 304.333 36.4287C301.193 36.4287 298.604 39.1668 298.604 42.7144C298.604 46.262 301.193 49.0001 304.333 49.0001C305.939 49.0001 307.114 48.4525 307.905 47.5477V48.6668H311.5V36.762H307.905ZM305.052 45.6191C303.398 45.6191 302.2 44.5001 302.2 42.7144C302.2 40.9287 303.398 39.8096 305.052 39.8096C306.706 39.8096 307.905 40.9287 307.905 42.7144C307.905 44.5001 306.706 45.6191 305.052 45.6191Z" fill="white"/>
<rect width="177" height="80" transform="translate(536)" fill="#151D51"/>
<mask id="mask0_27_5243" style="mask-type:luminance" maskUnits="userSpaceOnUse" x="557" y="22" width="135" height="36">
<path d="M692 22H557V58H692V22Z" fill="white"/>
</mask>
<g mask="url(#mask0_27_5243)">
<path d="M667.937 30.14C660.259 30.14 654.028 36.371 654.028 44.05C654.028 51.728 660.259 57.959 667.937 57.959C675.616 57.959 681.846 51.728 681.846 44.049C681.846 36.371 675.616 30.14 667.937 30.14ZM667.937 52.441C663.427 52.441 659.756 48.686 659.756 44.05C659.756 39.413 663.406 35.658 667.937 35.658C672.469 35.658 676.119 39.413 676.119 44.05C676.098 48.686 672.448 52.441 667.937 52.441ZM650.588 30.559H644.86V57.559H650.588V30.559ZM570.678 35.68C573.909 35.68 576.448 37.4 577.559 40.378H583.643C582.028 34.064 577.245 30.141 570.804 30.141C562.958 30.14 557 36.37 557 44.07C557 51.77 562.958 57.98 570.804 57.98C577.244 57.98 582.028 54.057 583.644 47.742H577.559C576.448 50.721 573.889 52.442 570.679 52.442C566 52.442 562.749 48.686 562.749 44.05C562.749 39.413 565.999 35.68 570.678 35.68ZM631.517 34.588V30.56H625.811V57.58H631.517V45.855C631.517 38.89 635.336 34.988 641.587 36.309V30.56C637.685 29.301 633.3 31.546 631.517 34.588ZM592.664 50.741V22H586.937V51.287C586.937 54.329 588.259 57.559 592.916 57.559H595.182V52.986H594.342C593.231 52.881 592.664 52.356 592.664 50.741ZM619.98 50.742V40.022C619.98 34.819 617.063 30.141 609.028 30.141C602.651 30.141 598.476 34.693 597.93 39.161H603.616C604.161 36.875 606.028 35.008 608.966 35.008C612.385 35.008 614.252 36.812 614.252 39.162C614.252 40.064 613.832 41.218 611.923 41.218L607.35 41.302C600.93 41.302 597.028 44.112 597.028 49.462C597.028 54.372 600.616 58.001 606.406 58.001C609.951 58.001 612.763 56.574 614.819 54.434C615.574 56.218 617.189 57.581 620.21 57.581H622.12V53.008H621.637C620.546 52.882 619.98 52.358 619.98 50.742ZM607.224 53.112C604.287 53.112 602.882 51.392 602.882 49.609C602.882 46.63 605.336 45.749 608.084 45.749L611.504 45.686C612.532 45.686 613.434 45.56 614.231 45.203V45.917C614.252 51.015 610.707 53.113 607.224 53.113V53.112Z" fill="white"/>
<path d="M642.525 22.0156C642.484 22.2466 642.484 22.4986 642.484 22.7506C642.483 23.4424 642.619 24.1275 642.883 24.7669C643.147 25.4062 643.535 25.9871 644.024 26.4762C644.513 26.9653 645.094 27.3531 645.733 27.6173C646.372 27.8814 647.058 28.0168 647.749 28.0156C648.441 28.0169 649.126 27.8817 649.766 27.6175C650.405 27.3534 650.986 26.9657 651.476 26.4765C651.965 25.9874 652.353 25.4065 652.617 24.7671C652.881 24.1277 653.017 23.4424 653.015 22.7506C653.015 22.4986 652.995 22.2466 652.973 22.0156H642.525ZM691.093 57.5746C691.135 57.3446 691.135 57.0926 691.135 56.8406C691.137 56.1488 691.002 55.4634 690.738 54.8239C690.474 54.1844 690.086 53.6034 689.597 53.1141C689.107 52.6249 688.526 52.237 687.887 51.9728C687.248 51.7086 686.562 51.5733 685.87 51.5746C685.178 51.5733 684.493 51.7086 683.854 51.9728C683.214 52.237 682.633 52.6248 682.144 53.1141C681.655 53.6033 681.267 54.1844 681.003 54.8239C680.738 55.4634 680.603 56.1487 680.604 56.8406C680.604 57.0926 680.625 57.3436 680.646 57.5746H691.093Z" fill="#0D86FF"/>
<path d="M690.958 57.5746C691 57.3446 691 57.0926 691 56.8406C691.002 56.1488 690.867 55.4634 690.603 54.8239C690.339 54.1844 689.951 53.6034 689.462 53.1141C688.972 52.6249 688.391 52.237 687.752 51.9728C687.113 51.7086 686.427 51.5733 685.735 51.5746C685.043 51.5733 684.358 51.7086 683.719 51.9728C683.079 52.237 682.498 52.6248 682.009 53.1141C681.52 53.6033 681.132 54.1844 680.868 54.8239C680.603 55.4634 680.468 56.1487 680.469 56.8406C680.469 57.0926 680.49 57.3436 680.511 57.5746H690.958Z" fill="#FAFF00"/>
</g>
<defs>
<clipPath id="clip0_27_5243">
<rect width="168" height="26" fill="white" transform="translate(0 27)"/>
</clipPath>
<clipPath id="clip1_27_5243">
<rect width="126" height="26" fill="white" transform="translate(42 27)"/>
</clipPath>
</defs>
</svg>
